<svg xmlns="http://www.w3.org/2000/svg" width="22" height="20" viewBox="0 0 22 20">
  <g id="image-gallery" transform="translate(-0.001 -2)">
    <g id="Group_61" data-name="Group 61" transform="translate(0.001 5)">
      <g id="Group_60" data-name="Group 60" transform="translate(0 3.932)">
        <path id="Path_35" data-name="Path 35" d="M5.648,18.1a3.375,3.375,0,0,1-3.2-2.212l-.032-.1a3.047,3.047,0,0,1-.156-.94V8.932L.067,15.955a1.962,1.962,0,0,0,1.439,2.389L15.48,21.936A2.155,2.155,0,0,0,16,22a2,2,0,0,0,1.953-1.418l.814-2.485Z" transform="translate(-0.001 -8.932)" fill="#005aa4"/>
      </g>
      <path id="Path_36" data-name="Path 36" d="M9,9A2,2,0,1,0,7,7,2,2,0,0,0,9,9Z" transform="translate(-0.835 -5)" fill="#005aa4"/>
    </g>
    <path id="Path_37" data-name="Path 37" d="M21.5,2H6.5A2.5,2.5,0,0,0,4,4.5v11A2.5,2.5,0,0,0,6.5,18h15A2.5,2.5,0,0,0,24,15.5V4.5A2.5,2.5,0,0,0,21.5,2ZM6.5,4h15a.5.5,0,0,1,.5.5v7.1L18.841,7.913A1.791,1.791,0,0,0,17.5,7.3a1.749,1.749,0,0,0-1.336.631L12.45,12.387,11.24,11.18a1.755,1.755,0,0,0-2.48,0L6,13.939V4.5A.5.5,0,0,1,6.5,4Z" transform="translate(-1.999)" fill="#005aa4"/>
  </g>
</svg>
