<svg version="1.2" baseProfile="tiny-ps" xmlns="http://www.w3.org/2000/svg" viewBox="0 0 9 20" width="9" height="20">
	<title>keep-left</title>
	<defs>
		<clipPath clipPathUnits="userSpaceOnUse" id="cp1">
			<path d="M7.79 0.81C8.1 0.67 8.46 0.9 8.46 1.25L8.46 9.53C8.45 9.97 7.93 10.18 7.64 9.86L6.36 7.87C6.21 7.7 5.93 7.73 5.82 7.93C4.86 9.66 4.05 11.89 4.05 13.89L4.03 19.28C4.03 19.66 3.73 19.97 3.36 19.97L1.33 19.96C0.96 19.96 0.69 19.66 0.69 19.28L0.67 13.88C0.68 11.21 1.68 8.33 3 6.04C3.11 5.85 3.02 5.6 2.81 5.54L0.33 5.1C-0.08 4.97 -0.11 4.39 0.28 4.21L7.79 0.81Z" />
		</clipPath>
	</defs>
	<style>
		tspan { white-space:pre }
		.shp0 { fill: #3f9cd9 } 
		.shp1 { fill: #000000 } 
	</style>
	<g id="keep-left">
		<g id="Group">
			<path id="path-3" fill-rule="evenodd" class="shp0" d="M7.79 0.81C8.1 0.67 8.46 0.9 8.46 1.25L8.46 9.53C8.45 9.97 7.93 10.18 7.64 9.86L6.36 7.87C6.21 7.7 5.93 7.73 5.82 7.93C4.86 9.66 4.05 11.89 4.05 13.89L4.03 19.28C4.03 19.66 3.73 19.97 3.36 19.97L1.33 19.96C0.96 19.96 0.69 19.66 0.69 19.28L0.67 13.88C0.68 11.21 1.68 8.33 3 6.04C3.11 5.85 3.02 5.6 2.81 5.54L0.33 5.1C-0.08 4.97 -0.11 4.39 0.28 4.21L7.79 0.81Z" />
			<g id="Clip-Path: 01Neutral/ProperBlack" clip-path="url(#cp1)">
				<g id="01Neutral/ProperBlack">
					<g id="Rectangle-Copy-5">
						<path id="Layer" class="shp1" d="M13.83 19.97L-5.37 19.97L-5.37 0.77L13.83 0.77L13.83 19.97Z" />
					</g>
				</g>
			</g>
		</g>
	</g>
</svg>